<?xml version="1.0" encoding="iso-8859-1"?>
<!-- Generator: Adobe Illustrator 19.0.0, SVG Export Plug-In . SVG Version: 6.00 Build 0)  -->
<svg version="1.1" id="Layer_1" xmlns="http://www.w3.org/2000/svg" xmlns:xlink="http://www.w3.org/1999/xlink" x="0px" y="0px"
	 viewBox="0 0 505 505" style="enable-background:new 0 0 505 505;" xml:space="preserve">
<circle style="fill:#FFD05B;" cx="252.5" cy="252.5" r="252.5"/>
<path style="fill:#324A5E;" d="M404.2,407H100.8c-1.6,0-2.9-1.3-2.9-2.9V100.8c0-1.6,1.3-2.9,2.9-2.9h303.3c1.6,0,2.9,1.3,2.9,2.9
	v303.3C407,405.7,405.7,407,404.2,407z"/>
<rect x="114.4" y="155.5" style="fill:#FFFFFF;" width="276.1" height="235"/>
<path style="fill:#FF7058;" d="M368.7,307.6c-1.4,0-2.6,0.8-3.2,2l-14.8,31.2l-20-71.2c-0.4-1.5-1.7-2.5-3.3-2.6
	c-1.4,0.1-2.9,0.9-3.5,2.3L310,307.4h-29.4c-1.4,0-2.7,0.8-3.2,2.1L258,354.8l-23.7-99.9c-0.3-1.4-1.5-2.4-2.9-2.7
	c-1.4-0.2-2.8,0.4-3.6,1.6l-35.6,58.5H115c-0.2,0-0.4,0.1-0.6,0.1v6.8c0.2,0,0.4,0.1,0.6,0.1h79.2c1.2,0,2.4-0.6,3-1.7l32.2-52.9
	l24.2,102c0.4,1.5,1.6,2.6,3.1,2.7c0.1,0,0.2,0,0.3,0c1.4,0,2.7-0.8,3.2-2.1l22.7-53h29.6c1.5,0,2.8-0.9,3.3-2.3l11-30.2l19.6,69.7
	c0.4,1.4,1.6,2.4,3.1,2.6c1.5,0.1,2.9-0.7,3.5-2l17.8-37.8h19.7v-7.1h-21.8V307.6z"/>
<g>
	<circle style="fill:#ACB3BA;" cx="373.9" cy="125.9" r="10.2"/>
	<circle style="fill:#ACB3BA;" cx="338.3" cy="125.9" r="10.2"/>
	<circle style="fill:#ACB3BA;" cx="302.7" cy="125.9" r="10.2"/>
</g>
<g>
	<rect x="131.6" y="173.2" style="fill:#E6E9EE;" width="89.7" height="10.3"/>
	<rect x="131.6" y="193" style="fill:#E6E9EE;" width="89.7" height="10.3"/>
	<rect x="131.6" y="212.8" style="fill:#E6E9EE;" width="56.4" height="10.3"/>
</g>
<g>
</g>
<g>
</g>
<g>
</g>
<g>
</g>
<g>
</g>
<g>
</g>
<g>
</g>
<g>
</g>
<g>
</g>
<g>
</g>
<g>
</g>
<g>
</g>
<g>
</g>
<g>
</g>
<g>
</g>
</svg>
